<svg id="svgg" xmlns="http://www.w3.org/2000/svg" height="3785.0945" width="100%" preserveAspectRatio="xMinYMin meet"><style>
    .bar {
        fill: red; /* changes the background */
        height: 21px;
        transition: fill .3s ease;
        cursor: pointer;
        font-family: Helvetica, sans-serif;
    }
    .bar text {
        color: black;
    }
    .bar:hover,
    .bar:focus {
        fill: black;
    }
    .bar:hover text,
    .bar:focus text {
        fill: red;
    }
    .hidden-text {
        display :none;
    }
    
    .bar:hover .hidden-text {
    display: block;
    } </style><g class="bar"><text x="2" y="19" fill="red" style="font-size: 10pt;">Albania 2016</text><rect x="20.3%" y="10" width="25%" height="10"></rect><text x="47%" y="19" fill="red" style="font-size: 10pt;">25</text><text class="hidden-text" x="20.2%" y="33" fill="red" style="font-size: 10pt;">children Both sexes underweight</text></g><g class="bar"><text x="2" y="49" fill="red" style="font-size: 10pt;">Albania 2016</text><rect x="20.3%" y="40" width="29.2%" height="10"></rect><text x="51.2%" y="49" fill="red" style="font-size: 10pt;">29.2</text><text class="hidden-text" x="20.2%" y="63" fill="red" style="font-size: 10pt;">children Male underweight</text></g><g class="bar"><text x="2" y="79" fill="red" style="font-size: 10pt;">Albania 2016</text><rect x="20.3%" y="70" width="20.5%" height="10"></rect><text x="42.5%" y="79" fill="red" style="font-size: 10pt;">20.5</text><text class="hidden-text" x="20.2%" y="93" fill="red" style="font-size: 10pt;">children Female underweight</text></g><g class="bar"><text x="2" y="109" fill="red" style="font-size: 10pt;">Albania 2015</text><rect x="20.3%" y="100" width="24%" height="10"></rect><text x="46%" y="109" fill="red" style="font-size: 10pt;">24</text><text class="hidden-text" x="20.2%" y="123" fill="red" style="font-size: 10pt;">children Both sexes underweight</text></g><g class="bar"><text x="2" y="139" fill="red" style="font-size: 10pt;">Albania 2015</text><rect x="20.3%" y="130" width="28%" height="10"></rect><text x="50%" y="139" fill="red" style="font-size: 10pt;">28</text><text class="hidden-text" x="20.2%" y="153" fill="red" style="font-size: 10pt;">children Male underweight</text></g><g class="bar"><text x="2" y="169" fill="red" style="font-size: 10pt;">Albania 2015</text><rect x="20.3%" y="160" width="19.7%" height="10"></rect><text x="41.7%" y="169" fill="red" style="font-size: 10pt;">19.7</text><text class="hidden-text" x="20.2%" y="183" fill="red" style="font-size: 10pt;">children Female underweight</text></g><g class="bar"><text x="2" y="199" fill="red" style="font-size: 10pt;">Albania 2014</text><rect x="20.3%" y="190" width="23%" height="10"></rect><text x="45%" y="199" fill="red" style="font-size: 10pt;">23</text><text class="hidden-text" x="20.2%" y="213" fill="red" style="font-size: 10pt;">children Both sexes underweight</text></g><g class="bar"><text x="2" y="229" fill="red" style="font-size: 10pt;">Albania 2014</text><rect x="20.3%" y="220" width="26.9%" height="10"></rect><text x="48.9%" y="229" fill="red" style="font-size: 10pt;">26.9</text><text class="hidden-text" x="20.2%" y="243" fill="red" style="font-size: 10pt;">children Male underweight</text></g><g class="bar"><text x="2" y="259" fill="red" style="font-size: 10pt;">Albania 2014</text><rect x="20.3%" y="250" width="18.9%" height="10"></rect><text x="40.9%" y="259" fill="red" style="font-size: 10pt;">18.9</text><text class="hidden-text" x="20.2%" y="273" fill="red" style="font-size: 10pt;">children Female underweight</text></g><g class="bar"><text x="2" y="289" fill="red" style="font-size: 10pt;">Albania 2013</text><rect x="20.3%" y="280" width="22.1%" height="10"></rect><text x="44.1%" y="289" fill="red" style="font-size: 10pt;">22.1</text><text class="hidden-text" x="20.2%" y="303" fill="red" style="font-size: 10pt;">children Both sexes underweight</text></g><g class="bar"><text x="2" y="319" fill="red" style="font-size: 10pt;">Albania 2013</text><rect x="20.3%" y="310" width="25.8%" height="10"></rect><text x="47.8%" y="319" fill="red" style="font-size: 10pt;">25.8</text><text class="hidden-text" x="20.2%" y="333" fill="red" style="font-size: 10pt;">children Male underweight</text></g><g class="bar"><text x="2" y="349" fill="red" style="font-size: 10pt;">Albania 2013</text><rect x="20.3%" y="340" width="18.2%" height="10"></rect><text x="40.2%" y="349" fill="red" style="font-size: 10pt;">18.2</text><text class="hidden-text" x="20.2%" y="363" fill="red" style="font-size: 10pt;">children Female underweight</text></g><g class="bar"><text x="2" y="379" fill="red" style="font-size: 10pt;">Albania 2012</text><rect x="20.3%" y="370" width="21.2%" height="10"></rect><text x="43.2%" y="379" fill="red" style="font-size: 10pt;">21.2</text><text class="hidden-text" x="20.2%" y="393" fill="red" style="font-size: 10pt;">children Both sexes underweight</text></g><g class="bar"><text x="2" y="409" fill="red" style="font-size: 10pt;">Albania 2012</text><rect x="20.3%" y="400" width="24.7%" height="10"></rect><text x="46.7%" y="409" fill="red" style="font-size: 10pt;">24.7</text><text class="hidden-text" x="20.2%" y="423" fill="red" style="font-size: 10pt;">children Male underweight</text></g><g class="bar"><text x="2" y="439" fill="red" style="font-size: 10pt;">Albania 2012</text><rect x="20.3%" y="430" width="17.5%" height="10"></rect><text x="39.5%" y="439" fill="red" style="font-size: 10pt;">17.5</text><text class="hidden-text" x="20.2%" y="453" fill="red" style="font-size: 10pt;">children Female underweight</text></g><g class="bar"><text x="2" y="469" fill="red" style="font-size: 10pt;">Albania 2011</text><rect x="20.3%" y="460" width="20.3%" height="10"></rect><text x="42.3%" y="469" fill="red" style="font-size: 10pt;">20.3</text><text class="hidden-text" x="20.2%" y="483" fill="red" style="font-size: 10pt;">children Both sexes underweight</text></g><g class="bar"><text x="2" y="499" fill="red" style="font-size: 10pt;">Albania 2011</text><rect x="20.3%" y="490" width="23.7%" height="10"></rect><text x="45.7%" y="499" fill="red" style="font-size: 10pt;">23.7</text><text class="hidden-text" x="20.2%" y="513" fill="red" style="font-size: 10pt;">children Male underweight</text></g><g class="bar"><text x="2" y="529" fill="red" style="font-size: 10pt;">Albania 2011</text><rect x="20.3%" y="520" width="16.7%" height="10"></rect><text x="38.7%" y="529" fill="red" style="font-size: 10pt;">16.7</text><text class="hidden-text" x="20.2%" y="543" fill="red" style="font-size: 10pt;">children Female underweight</text></g><g class="bar"><text x="2" y="559" fill="red" style="font-size: 10pt;">Albania 2010</text><rect x="20.3%" y="550" width="19.4%" height="10"></rect><text x="41.4%" y="559" fill="red" style="font-size: 10pt;">19.4</text><text class="hidden-text" x="20.2%" y="573" fill="red" style="font-size: 10pt;">children Both sexes underweight</text></g><g class="bar"><text x="2" y="589" fill="red" style="font-size: 10pt;">Albania 2010</text><rect x="20.3%" y="580" width="22.6%" height="10"></rect><text x="44.6%" y="589" fill="red" style="font-size: 10pt;">22.6</text><text class="hidden-text" x="20.2%" y="603" fill="red" style="font-size: 10pt;">children Male underweight</text></g><g class="bar"><text x="2" y="619" fill="red" style="font-size: 10pt;">Albania 2010</text><rect x="20.3%" y="610" width="16%" height="10"></rect><text x="38%" y="619" fill="red" style="font-size: 10pt;">16</text><text class="hidden-text" x="20.2%" y="633" fill="red" style="font-size: 10pt;">children Female underweight</text></g><g class="bar"><text x="2" y="649" fill="red" style="font-size: 10pt;">Albania 2009</text><rect x="20.3%" y="640" width="18.5%" height="10"></rect><text x="40.5%" y="649" fill="red" style="font-size: 10pt;">18.5</text><text class="hidden-text" x="20.2%" y="663" fill="red" style="font-size: 10pt;">children Both sexes underweight</text></g><g class="bar"><text x="2" y="679" fill="red" style="font-size: 10pt;">Albania 2009</text><rect x="20.3%" y="670" width="21.6%" height="10"></rect><text x="43.6%" y="679" fill="red" style="font-size: 10pt;">21.6</text><text class="hidden-text" x="20.2%" y="693" fill="red" style="font-size: 10pt;">children Male underweight</text></g><g class="bar"><text x="2" y="709" fill="red" style="font-size: 10pt;">Albania 2009</text><rect x="20.3%" y="700" width="15.3%" height="10"></rect><text x="37.3%" y="709" fill="red" style="font-size: 10pt;">15.3</text><text class="hidden-text" x="20.2%" y="723" fill="red" style="font-size: 10pt;">children Female underweight</text></g><g class="bar"><text x="2" y="739" fill="red" style="font-size: 10pt;">Albania 2008</text><rect x="20.3%" y="730" width="17.7%" height="10"></rect><text x="39.7%" y="739" fill="red" style="font-size: 10pt;">17.7</text><text class="hidden-text" x="20.2%" y="753" fill="red" style="font-size: 10pt;">children Both sexes underweight</text></g><g class="bar"><text x="2" y="769" fill="red" style="font-size: 10pt;">Albania 2008</text><rect x="20.3%" y="760" width="20.5%" height="10"></rect><text x="42.5%" y="769" fill="red" style="font-size: 10pt;">20.5</text><text class="hidden-text" x="20.2%" y="783" fill="red" style="font-size: 10pt;">children Male underweight</text></g><g class="bar"><text x="2" y="799" fill="red" style="font-size: 10pt;">Albania 2008</text><rect x="20.3%" y="790" width="14.7%" height="10"></rect><text x="36.7%" y="799" fill="red" style="font-size: 10pt;">14.7</text><text class="hidden-text" x="20.2%" y="813" fill="red" style="font-size: 10pt;">children Female underweight</text></g><g class="bar"><text x="2" y="829" fill="red" style="font-size: 10pt;">Albania 2007</text><rect x="20.3%" y="820" width="16.8%" height="10"></rect><text x="38.8%" y="829" fill="red" style="font-size: 10pt;">16.8</text><text class="hidden-text" x="20.2%" y="843" fill="red" style="font-size: 10pt;">children Both sexes underweight</text></g><g class="bar"><text x="2" y="859" fill="red" style="font-size: 10pt;">Albania 2007</text><rect x="20.3%" y="850" width="19.5%" height="10"></rect><text x="41.5%" y="859" fill="red" style="font-size: 10pt;">19.5</text><text class="hidden-text" x="20.2%" y="873" fill="red" style="font-size: 10pt;">children Male underweight</text></g><g class="bar"><text x="2" y="889" fill="red" style="font-size: 10pt;">Albania 2007</text><rect x="20.3%" y="880" width="14%" height="10"></rect><text x="36%" y="889" fill="red" style="font-size: 10pt;">14</text><text class="hidden-text" x="20.2%" y="903" fill="red" style="font-size: 10pt;">children Female underweight</text></g><g class="bar"><text x="2" y="919" fill="red" style="font-size: 10pt;">Albania 2006</text><rect x="20.3%" y="910" width="16%" height="10"></rect><text x="38%" y="919" fill="red" style="font-size: 10pt;">16</text><text class="hidden-text" x="20.2%" y="933" fill="red" style="font-size: 10pt;">children Both sexes underweight</text></g><g class="bar"><text x="2" y="949" fill="red" style="font-size: 10pt;">Albania 2006</text><rect x="20.3%" y="940" width="18.5%" height="10"></rect><text x="40.5%" y="949" fill="red" style="font-size: 10pt;">18.5</text><text class="hidden-text" x="20.2%" y="963" fill="red" style="font-size: 10pt;">children Male underweight</text></g><g class="bar"><text x="2" y="979" fill="red" style="font-size: 10pt;">Albania 2006</text><rect x="20.3%" y="970" width="13.4%" height="10"></rect><text x="35.4%" y="979" fill="red" style="font-size: 10pt;">13.4</text><text class="hidden-text" x="20.2%" y="993" fill="red" style="font-size: 10pt;">children Female underweight</text></g><g class="bar"><text x="2" y="1009" fill="red" style="font-size: 10pt;">Albania 2005</text><rect x="20.3%" y="1000" width="15.2%" height="10"></rect><text x="37.2%" y="1009" fill="red" style="font-size: 10pt;">15.2</text><text class="hidden-text" x="20.2%" y="1023" fill="red" style="font-size: 10pt;">children Both sexes underweight</text></g><g class="bar"><text x="2" y="1039" fill="red" style="font-size: 10pt;">Albania 2005</text><rect x="20.3%" y="1030" width="17.6%" height="10"></rect><text x="39.6%" y="1039" fill="red" style="font-size: 10pt;">17.6</text><text class="hidden-text" x="20.2%" y="1053" fill="red" style="font-size: 10pt;">children Male underweight</text></g><g class="bar"><text x="2" y="1069" fill="red" style="font-size: 10pt;">Albania 2005</text><rect x="20.3%" y="1060" width="12.7%" height="10"></rect><text x="34.7%" y="1069" fill="red" style="font-size: 10pt;">12.7</text><text class="hidden-text" x="20.2%" y="1083" fill="red" style="font-size: 10pt;">children Female underweight</text></g><g class="bar"><text x="2" y="1099" fill="red" style="font-size: 10pt;">Albania 2004</text><rect x="20.3%" y="1090" width="14.4%" height="10"></rect><text x="36.4%" y="1099" fill="red" style="font-size: 10pt;">14.4</text><text class="hidden-text" x="20.2%" y="1113" fill="red" style="font-size: 10pt;">children Both sexes underweight</text></g><g class="bar"><text x="2" y="1129" fill="red" style="font-size: 10pt;">Albania 2004</text><rect x="20.3%" y="1120" width="16.7%" height="10"></rect><text x="38.7%" y="1129" fill="red" style="font-size: 10pt;">16.7</text><text class="hidden-text" x="20.2%" y="1143" fill="red" style="font-size: 10pt;">children Male underweight</text></g><g class="bar"><text x="2" y="1159" fill="red" style="font-size: 10pt;">Albania 2004</text><rect x="20.3%" y="1150" width="12.1%" height="10"></rect><text x="34.1%" y="1159" fill="red" style="font-size: 10pt;">12.1</text><text class="hidden-text" x="20.2%" y="1173" fill="red" style="font-size: 10pt;">children Female underweight</text></g><g class="bar"><text x="2" y="1189" fill="red" style="font-size: 10pt;">Albania 2003</text><rect x="20.3%" y="1180" width="13.7%" height="10"></rect><text x="35.7%" y="1189" fill="red" style="font-size: 10pt;">13.7</text><text class="hidden-text" x="20.2%" y="1203" fill="red" style="font-size: 10pt;">children Both sexes underweight</text></g><g class="bar"><text x="2" y="1219" fill="red" style="font-size: 10pt;">Albania 2003</text><rect x="20.3%" y="1210" width="15.8%" height="10"></rect><text x="37.8%" y="1219" fill="red" style="font-size: 10pt;">15.8</text><text class="hidden-text" x="20.2%" y="1233" fill="red" style="font-size: 10pt;">children Male underweight</text></g><g class="bar"><text x="2" y="1249" fill="red" style="font-size: 10pt;">Albania 2003</text><rect x="20.3%" y="1240" width="11.5%" height="10"></rect><text x="33.5%" y="1249" fill="red" style="font-size: 10pt;">11.5</text><text class="hidden-text" x="20.2%" y="1263" fill="red" style="font-size: 10pt;">children Female underweight</text></g><g class="bar"><text x="2" y="1279" fill="red" style="font-size: 10pt;">Albania 2002</text><rect x="20.3%" y="1270" width="13%" height="10"></rect><text x="35%" y="1279" fill="red" style="font-size: 10pt;">13</text><text class="hidden-text" x="20.2%" y="1293" fill="red" style="font-size: 10pt;">children Both sexes underweight</text></g><g class="bar"><text x="2" y="1309" fill="red" style="font-size: 10pt;">Albania 2002</text><rect x="20.3%" y="1300" width="15%" height="10"></rect><text x="37%" y="1309" fill="red" style="font-size: 10pt;">15</text><text class="hidden-text" x="20.2%" y="1323" fill="red" style="font-size: 10pt;">children Male underweight</text></g><g class="bar"><text x="2" y="1339" fill="red" style="font-size: 10pt;">Albania 2002</text><rect x="20.3%" y="1330" width="10.9%" height="10"></rect><text x="32.9%" y="1339" fill="red" style="font-size: 10pt;">10.9</text><text class="hidden-text" x="20.2%" y="1353" fill="red" style="font-size: 10pt;">children Female underweight</text></g><g class="bar"><text x="2" y="1369" fill="red" style="font-size: 10pt;">Albania 2001</text><rect x="20.3%" y="1360" width="12.3%" height="10"></rect><text x="34.3%" y="1369" fill="red" style="font-size: 10pt;">12.3</text><text class="hidden-text" x="20.2%" y="1383" fill="red" style="font-size: 10pt;">children Both sexes underweight</text></g><g class="bar"><text x="2" y="1399" fill="red" style="font-size: 10pt;">Albania 2001</text><rect x="20.3%" y="1390" width="14.3%" height="10"></rect><text x="36.3%" y="1399" fill="red" style="font-size: 10pt;">14.3</text><text class="hidden-text" x="20.2%" y="1413" fill="red" style="font-size: 10pt;">children Male underweight</text></g><g class="bar"><text x="2" y="1429" fill="red" style="font-size: 10pt;">Albania 2001</text><rect x="20.3%" y="1420" width="10.4%" height="10"></rect><text x="32.4%" y="1429" fill="red" style="font-size: 10pt;">10.4</text><text class="hidden-text" x="20.2%" y="1443" fill="red" style="font-size: 10pt;">children Female underweight</text></g><g class="bar"><text x="2" y="1459" fill="red" style="font-size: 10pt;">Albania 2000</text><rect x="20.3%" y="1450" width="11.7%" height="10"></rect><text x="33.7%" y="1459" fill="red" style="font-size: 10pt;">11.7</text><text class="hidden-text" x="20.2%" y="1473" fill="red" style="font-size: 10pt;">children Both sexes underweight</text></g><g class="bar"><text x="2" y="1489" fill="red" style="font-size: 10pt;">Albania 2000</text><rect x="20.3%" y="1480" width="13.5%" height="10"></rect><text x="35.5%" y="1489" fill="red" style="font-size: 10pt;">13.5</text><text class="hidden-text" x="20.2%" y="1503" fill="red" style="font-size: 10pt;">children Male underweight</text></g><g class="bar"><text x="2" y="1519" fill="red" style="font-size: 10pt;">Albania 2000</text><rect x="20.3%" y="1510" width="9.9%" height="10"></rect><text x="31.9%" y="1519" fill="red" style="font-size: 10pt;">9.9</text><text class="hidden-text" x="20.2%" y="1533" fill="red" style="font-size: 10pt;">children Female underweight</text></g><g class="bar"><text x="2" y="1549" fill="red" style="font-size: 10pt;">Albania 1999</text><rect x="20.3%" y="1540" width="11.1%" height="10"></rect><text x="33.1%" y="1549" fill="red" style="font-size: 10pt;">11.1</text><text class="hidden-text" x="20.2%" y="1563" fill="red" style="font-size: 10pt;">children Both sexes underweight</text></g><g class="bar"><text x="2" y="1579" fill="red" style="font-size: 10pt;">Albania 1999</text><rect x="20.3%" y="1570" width="12.8%" height="10"></rect><text x="34.8%" y="1579" fill="red" style="font-size: 10pt;">12.8</text><text class="hidden-text" x="20.2%" y="1593" fill="red" style="font-size: 10pt;">children Male underweight</text></g><g class="bar"><text x="2" y="1609" fill="red" style="font-size: 10pt;">Albania 1999</text><rect x="20.3%" y="1600" width="9.4%" height="10"></rect><text x="31.4%" y="1609" fill="red" style="font-size: 10pt;">9.4</text><text class="hidden-text" x="20.2%" y="1623" fill="red" style="font-size: 10pt;">children Female underweight</text></g><g class="bar"><text x="2" y="1639" fill="red" style="font-size: 10pt;">Albania 1998</text><rect x="20.3%" y="1630" width="10.6%" height="10"></rect><text x="32.6%" y="1639" fill="red" style="font-size: 10pt;">10.6</text><text class="hidden-text" x="20.2%" y="1653" fill="red" style="font-size: 10pt;">children Both sexes underweight</text></g><g class="bar"><text x="2" y="1669" fill="red" style="font-size: 10pt;">Albania 1998</text><rect x="20.3%" y="1660" width="12.1%" height="10"></rect><text x="34.1%" y="1669" fill="red" style="font-size: 10pt;">12.1</text><text class="hidden-text" x="20.2%" y="1683" fill="red" style="font-size: 10pt;">children Male underweight</text></g><g class="bar"><text x="2" y="1699" fill="red" style="font-size: 10pt;">Albania 1998</text><rect x="20.3%" y="1690" width="8.9%" height="10"></rect><text x="30.9%" y="1699" fill="red" style="font-size: 10pt;">8.9</text><text class="hidden-text" x="20.2%" y="1713" fill="red" style="font-size: 10pt;">children Female underweight</text></g><g class="bar"><text x="2" y="1729" fill="red" style="font-size: 10pt;">Albania 1997</text><rect x="20.3%" y="1720" width="10%" height="10"></rect><text x="32%" y="1729" fill="red" style="font-size: 10pt;">10</text><text class="hidden-text" x="20.2%" y="1743" fill="red" style="font-size: 10pt;">children Both sexes underweight</text></g><g class="bar"><text x="2" y="1759" fill="red" style="font-size: 10pt;">Albania 1997</text><rect x="20.3%" y="1750" width="11.5%" height="10"></rect><text x="33.5%" y="1759" fill="red" style="font-size: 10pt;">11.5</text><text class="hidden-text" x="20.2%" y="1773" fill="red" style="font-size: 10pt;">children Male underweight</text></g><g class="bar"><text x="2" y="1789" fill="red" style="font-size: 10pt;">Albania 1997</text><rect x="20.3%" y="1780" width="8.5%" height="10"></rect><text x="30.5%" y="1789" fill="red" style="font-size: 10pt;">8.5</text><text class="hidden-text" x="20.2%" y="1803" fill="red" style="font-size: 10pt;">children Female underweight</text></g><g class="bar"><text x="2" y="1819" fill="red" style="font-size: 10pt;">Albania 1996</text><rect x="20.3%" y="1810" width="9.5%" height="10"></rect><text x="31.5%" y="1819" fill="red" style="font-size: 10pt;">9.5</text><text class="hidden-text" x="20.2%" y="1833" fill="red" style="font-size: 10pt;">children Both sexes underweight</text></g><g class="bar"><text x="2" y="1849" fill="red" style="font-size: 10pt;">Albania 1996</text><rect x="20.3%" y="1840" width="10.8%" height="10"></rect><text x="32.8%" y="1849" fill="red" style="font-size: 10pt;">10.8</text><text class="hidden-text" x="20.2%" y="1863" fill="red" style="font-size: 10pt;">children Male underweight</text></g><g class="bar"><text x="2" y="1879" fill="red" style="font-size: 10pt;">Albania 1996</text><rect x="20.3%" y="1870" width="8.1%" height="10"></rect><text x="30.1%" y="1879" fill="red" style="font-size: 10pt;">8.1</text><text class="hidden-text" x="20.2%" y="1893" fill="red" style="font-size: 10pt;">children Female underweight</text></g><g class="bar"><text x="2" y="1909" fill="red" style="font-size: 10pt;">Albania 1995</text><rect x="20.3%" y="1900" width="9%" height="10"></rect><text x="31%" y="1909" fill="red" style="font-size: 10pt;">9</text><text class="hidden-text" x="20.2%" y="1923" fill="red" style="font-size: 10pt;">children Both sexes underweight</text></g><g class="bar"><text x="2" y="1939" fill="red" style="font-size: 10pt;">Albania 1995</text><rect x="20.3%" y="1930" width="10.2%" height="10"></rect><text x="32.2%" y="1939" fill="red" style="font-size: 10pt;">10.2</text><text class="hidden-text" x="20.2%" y="1953" fill="red" style="font-size: 10pt;">children Male underweight</text></g><g class="bar"><text x="2" y="1969" fill="red" style="font-size: 10pt;">Albania 1995</text><rect x="20.3%" y="1960" width="7.7%" height="10"></rect><text x="29.7%" y="1969" fill="red" style="font-size: 10pt;">7.7</text><text class="hidden-text" x="20.2%" y="1983" fill="red" style="font-size: 10pt;">children Female underweight</text></g><g class="bar"><text x="2" y="1999" fill="red" style="font-size: 10pt;">Albania 1994</text><rect x="20.3%" y="1990" width="8.5%" height="10"></rect><text x="30.5%" y="1999" fill="red" style="font-size: 10pt;">8.5</text><text class="hidden-text" x="20.2%" y="2013" fill="red" style="font-size: 10pt;">children Both sexes underweight</text></g><g class="bar"><text x="2" y="2029" fill="red" style="font-size: 10pt;">Albania 1994</text><rect x="20.3%" y="2020" width="9.7%" height="10"></rect><text x="31.7%" y="2029" fill="red" style="font-size: 10pt;">9.7</text><text class="hidden-text" x="20.2%" y="2043" fill="red" style="font-size: 10pt;">children Male underweight</text></g><g class="bar"><text x="2" y="2059" fill="red" style="font-size: 10pt;">Albania 1994</text><rect x="20.3%" y="2050" width="7.3%" height="10"></rect><text x="29.3%" y="2059" fill="red" style="font-size: 10pt;">7.3</text><text class="hidden-text" x="20.2%" y="2073" fill="red" style="font-size: 10pt;">children Female underweight</text></g><g class="bar"><text x="2" y="2089" fill="red" style="font-size: 10pt;">Albania 1993</text><rect x="20.3%" y="2080" width="8.1%" height="10"></rect><text x="30.1%" y="2089" fill="red" style="font-size: 10pt;">8.1</text><text class="hidden-text" x="20.2%" y="2103" fill="red" style="font-size: 10pt;">children Both sexes underweight</text></g><g class="bar"><text x="2" y="2119" fill="red" style="font-size: 10pt;">Albania 1993</text><rect x="20.3%" y="2110" width="9.1%" height="10"></rect><text x="31.1%" y="2119" fill="red" style="font-size: 10pt;">9.1</text><text class="hidden-text" x="20.2%" y="2133" fill="red" style="font-size: 10pt;">children Male underweight</text></g><g class="bar"><text x="2" y="2149" fill="red" style="font-size: 10pt;">Albania 1993</text><rect x="20.3%" y="2140" width="7%" height="10"></rect><text x="29%" y="2149" fill="red" style="font-size: 10pt;">7</text><text class="hidden-text" x="20.2%" y="2163" fill="red" style="font-size: 10pt;">children Female underweight</text></g><g class="bar"><text x="2" y="2179" fill="red" style="font-size: 10pt;">Albania 1992</text><rect x="20.3%" y="2170" width="7.7%" height="10"></rect><text x="29.7%" y="2179" fill="red" style="font-size: 10pt;">7.7</text><text class="hidden-text" x="20.2%" y="2193" fill="red" style="font-size: 10pt;">children Both sexes underweight</text></g><g class="bar"><text x="2" y="2209" fill="red" style="font-size: 10pt;">Albania 1992</text><rect x="20.3%" y="2200" width="8.6%" height="10"></rect><text x="30.6%" y="2209" fill="red" style="font-size: 10pt;">8.6</text><text class="hidden-text" x="20.2%" y="2223" fill="red" style="font-size: 10pt;">children Male underweight</text></g><g class="bar"><text x="2" y="2239" fill="red" style="font-size: 10pt;">Albania 1992</text><rect x="20.3%" y="2230" width="6.6%" height="10"></rect><text x="28.6%" y="2239" fill="red" style="font-size: 10pt;">6.6</text><text class="hidden-text" x="20.2%" y="2253" fill="red" style="font-size: 10pt;">children Female underweight</text></g><g class="bar"><text x="2" y="2269" fill="red" style="font-size: 10pt;">Albania 1991</text><rect x="20.3%" y="2260" width="7.3%" height="10"></rect><text x="29.3%" y="2269" fill="red" style="font-size: 10pt;">7.3</text><text class="hidden-text" x="20.2%" y="2283" fill="red" style="font-size: 10pt;">children Both sexes underweight</text></g><g class="bar"><text x="2" y="2299" fill="red" style="font-size: 10pt;">Albania 1991</text><rect x="20.3%" y="2290" width="8.1%" height="10"></rect><text x="30.1%" y="2299" fill="red" style="font-size: 10pt;">8.1</text><text class="hidden-text" x="20.2%" y="2313" fill="red" style="font-size: 10pt;">children Male underweight</text></g><g class="bar"><text x="2" y="2329" fill="red" style="font-size: 10pt;">Albania 1991</text><rect x="20.3%" y="2320" width="6.3%" height="10"></rect><text x="28.3%" y="2329" fill="red" style="font-size: 10pt;">6.3</text><text class="hidden-text" x="20.2%" y="2343" fill="red" style="font-size: 10pt;">children Female underweight</text></g><g class="bar"><text x="2" y="2359" fill="red" style="font-size: 10pt;">Albania 1990</text><rect x="20.3%" y="2350" width="6.9%" height="10"></rect><text x="28.9%" y="2359" fill="red" style="font-size: 10pt;">6.9</text><text class="hidden-text" x="20.2%" y="2373" fill="red" style="font-size: 10pt;">children Both sexes underweight</text></g><g class="bar"><text x="2" y="2389" fill="red" style="font-size: 10pt;">Albania 1990</text><rect x="20.3%" y="2380" width="7.7%" height="10"></rect><text x="29.7%" y="2389" fill="red" style="font-size: 10pt;">7.7</text><text class="hidden-text" x="20.2%" y="2403" fill="red" style="font-size: 10pt;">children Male underweight</text></g><g class="bar"><text x="2" y="2419" fill="red" style="font-size: 10pt;">Albania 1990</text><rect x="20.3%" y="2410" width="6%" height="10"></rect><text x="28%" y="2419" fill="red" style="font-size: 10pt;">6</text><text class="hidden-text" x="20.2%" y="2433" fill="red" style="font-size: 10pt;">children Female underweight</text></g><g class="bar"><text x="2" y="2449" fill="red" style="font-size: 10pt;">Albania 1989</text><rect x="20.3%" y="2440" width="6.5%" height="10"></rect><text x="28.5%" y="2449" fill="red" style="font-size: 10pt;">6.5</text><text class="hidden-text" x="20.2%" y="2463" fill="red" style="font-size: 10pt;">children Both sexes underweight</text></g><g class="bar"><text x="2" y="2479" fill="red" style="font-size: 10pt;">Albania 1989</text><rect x="20.3%" y="2470" width="7.3%" height="10"></rect><text x="29.3%" y="2479" fill="red" style="font-size: 10pt;">7.3</text><text class="hidden-text" x="20.2%" y="2493" fill="red" style="font-size: 10pt;">children Male underweight</text></g><g class="bar"><text x="2" y="2509" fill="red" style="font-size: 10pt;">Albania 1989</text><rect x="20.3%" y="2500" width="5.7%" height="10"></rect><text x="27.7%" y="2509" fill="red" style="font-size: 10pt;">5.7</text><text class="hidden-text" x="20.2%" y="2523" fill="red" style="font-size: 10pt;">children Female underweight</text></g><g class="bar"><text x="2" y="2539" fill="red" style="font-size: 10pt;">Albania 1988</text><rect x="20.3%" y="2530" width="6.2%" height="10"></rect><text x="28.2%" y="2539" fill="red" style="font-size: 10pt;">6.2</text><text class="hidden-text" x="20.2%" y="2553" fill="red" style="font-size: 10pt;">children Both sexes underweight</text></g><g class="bar"><text x="2" y="2569" fill="red" style="font-size: 10pt;">Albania 1988</text><rect x="20.3%" y="2560" width="6.9%" height="10"></rect><text x="28.9%" y="2569" fill="red" style="font-size: 10pt;">6.9</text><text class="hidden-text" x="20.2%" y="2583" fill="red" style="font-size: 10pt;">children Male underweight</text></g><g class="bar"><text x="2" y="2599" fill="red" style="font-size: 10pt;">Albania 1988</text><rect x="20.3%" y="2590" width="5.5%" height="10"></rect><text x="27.5%" y="2599" fill="red" style="font-size: 10pt;">5.5</text><text class="hidden-text" x="20.2%" y="2613" fill="red" style="font-size: 10pt;">children Female underweight</text></g><g class="bar"><text x="2" y="2629" fill="red" style="font-size: 10pt;">Albania 1987</text><rect x="20.3%" y="2620" width="5.9%" height="10"></rect><text x="27.9%" y="2629" fill="red" style="font-size: 10pt;">5.9</text><text class="hidden-text" x="20.2%" y="2643" fill="red" style="font-size: 10pt;">children Both sexes underweight</text></g><g class="bar"><text x="2" y="2659" fill="red" style="font-size: 10pt;">Albania 1987</text><rect x="20.3%" y="2650" width="6.5%" height="10"></rect><text x="28.5%" y="2659" fill="red" style="font-size: 10pt;">6.5</text><text class="hidden-text" x="20.2%" y="2673" fill="red" style="font-size: 10pt;">children Male underweight</text></g><g class="bar"><text x="2" y="2689" fill="red" style="font-size: 10pt;">Albania 1987</text><rect x="20.3%" y="2680" width="5.2%" height="10"></rect><text x="27.2%" y="2689" fill="red" style="font-size: 10pt;">5.2</text><text class="hidden-text" x="20.2%" y="2703" fill="red" style="font-size: 10pt;">children Female underweight</text></g><g class="bar"><text x="2" y="2719" fill="red" style="font-size: 10pt;">Albania 1986</text><rect x="20.3%" y="2710" width="5.6%" height="10"></rect><text x="27.6%" y="2719" fill="red" style="font-size: 10pt;">5.6</text><text class="hidden-text" x="20.2%" y="2733" fill="red" style="font-size: 10pt;">children Both sexes underweight</text></g><g class="bar"><text x="2" y="2749" fill="red" style="font-size: 10pt;">Albania 1986</text><rect x="20.3%" y="2740" width="6.2%" height="10"></rect><text x="28.2%" y="2749" fill="red" style="font-size: 10pt;">6.2</text><text class="hidden-text" x="20.2%" y="2763" fill="red" style="font-size: 10pt;">children Male underweight</text></g><g class="bar"><text x="2" y="2779" fill="red" style="font-size: 10pt;">Albania 1986</text><rect x="20.3%" y="2770" width="5%" height="10"></rect><text x="27%" y="2779" fill="red" style="font-size: 10pt;">5</text><text class="hidden-text" x="20.2%" y="2793" fill="red" style="font-size: 10pt;">children Female underweight</text></g><g class="bar"><text x="2" y="2809" fill="red" style="font-size: 10pt;">Albania 1985</text><rect x="20.3%" y="2800" width="5.3%" height="10"></rect><text x="27.3%" y="2809" fill="red" style="font-size: 10pt;">5.3</text><text class="hidden-text" x="20.2%" y="2823" fill="red" style="font-size: 10pt;">children Both sexes underweight</text></g><g class="bar"><text x="2" y="2839" fill="red" style="font-size: 10pt;">Albania 1985</text><rect x="20.3%" y="2830" width="5.9%" height="10"></rect><text x="27.9%" y="2839" fill="red" style="font-size: 10pt;">5.9</text><text class="hidden-text" x="20.2%" y="2853" fill="red" style="font-size: 10pt;">children Male underweight</text></g><g class="bar"><text x="2" y="2869" fill="red" style="font-size: 10pt;">Albania 1985</text><rect x="20.3%" y="2860" width="4.7%" height="10"></rect><text x="26.7%" y="2869" fill="red" style="font-size: 10pt;">4.7</text><text class="hidden-text" x="20.2%" y="2883" fill="red" style="font-size: 10pt;">children Female underweight</text></g><g class="bar"><text x="2" y="2899" fill="red" style="font-size: 10pt;">Albania 1984</text><rect x="20.3%" y="2890" width="5%" height="10"></rect><text x="27%" y="2899" fill="red" style="font-size: 10pt;">5</text><text class="hidden-text" x="20.2%" y="2913" fill="red" style="font-size: 10pt;">children Both sexes underweight</text></g><g class="bar"><text x="2" y="2929" fill="red" style="font-size: 10pt;">Albania 1984</text><rect x="20.3%" y="2920" width="5.5%" height="10"></rect><text x="27.5%" y="2929" fill="red" style="font-size: 10pt;">5.5</text><text class="hidden-text" x="20.2%" y="2943" fill="red" style="font-size: 10pt;">children Male underweight</text></g><g class="bar"><text x="2" y="2959" fill="red" style="font-size: 10pt;">Albania 1984</text><rect x="20.3%" y="2950" width="4.5%" height="10"></rect><text x="26.5%" y="2959" fill="red" style="font-size: 10pt;">4.5</text><text class="hidden-text" x="20.2%" y="2973" fill="red" style="font-size: 10pt;">children Female underweight</text></g><g class="bar"><text x="2" y="2989" fill="red" style="font-size: 10pt;">Albania 1983</text><rect x="20.3%" y="2980" width="4.8%" height="10"></rect><text x="26.8%" y="2989" fill="red" style="font-size: 10pt;">4.8</text><text class="hidden-text" x="20.2%" y="3003" fill="red" style="font-size: 10pt;">children Both sexes underweight</text></g><g class="bar"><text x="2" y="3019" fill="red" style="font-size: 10pt;">Albania 1983</text><rect x="20.3%" y="3010" width="5.3%" height="10"></rect><text x="27.3%" y="3019" fill="red" style="font-size: 10pt;">5.3</text><text class="hidden-text" x="20.2%" y="3033" fill="red" style="font-size: 10pt;">children Male underweight</text></g><g class="bar"><text x="2" y="3049" fill="red" style="font-size: 10pt;">Albania 1983</text><rect x="20.3%" y="3040" width="4.3%" height="10"></rect><text x="26.3%" y="3049" fill="red" style="font-size: 10pt;">4.3</text><text class="hidden-text" x="20.2%" y="3063" fill="red" style="font-size: 10pt;">children Female underweight</text></g><g class="bar"><text x="2" y="3079" fill="red" style="font-size: 10pt;">Albania 1982</text><rect x="20.3%" y="3070" width="4.6%" height="10"></rect><text x="26.6%" y="3079" fill="red" style="font-size: 10pt;">4.6</text><text class="hidden-text" x="20.2%" y="3093" fill="red" style="font-size: 10pt;">children Both sexes underweight</text></g><g class="bar"><text x="2" y="3109" fill="red" style="font-size: 10pt;">Albania 1982</text><rect x="20.3%" y="3100" width="5%" height="10"></rect><text x="27%" y="3109" fill="red" style="font-size: 10pt;">5</text><text class="hidden-text" x="20.2%" y="3123" fill="red" style="font-size: 10pt;">children Male underweight</text></g><g class="bar"><text x="2" y="3139" fill="red" style="font-size: 10pt;">Albania 1982</text><rect x="20.3%" y="3130" width="4.1%" height="10"></rect><text x="26.1%" y="3139" fill="red" style="font-size: 10pt;">4.1</text><text class="hidden-text" x="20.2%" y="3153" fill="red" style="font-size: 10pt;">children Female underweight</text></g><g class="bar"><text x="2" y="3169" fill="red" style="font-size: 10pt;">Albania 1981</text><rect x="20.3%" y="3160" width="4.3%" height="10"></rect><text x="26.3%" y="3169" fill="red" style="font-size: 10pt;">4.3</text><text class="hidden-text" x="20.2%" y="3183" fill="red" style="font-size: 10pt;">children Both sexes underweight</text></g><g class="bar"><text x="2" y="3199" fill="red" style="font-size: 10pt;">Albania 1981</text><rect x="20.3%" y="3190" width="4.7%" height="10"></rect><text x="26.7%" y="3199" fill="red" style="font-size: 10pt;">4.7</text><text class="hidden-text" x="20.2%" y="3213" fill="red" style="font-size: 10pt;">children Male underweight</text></g><g class="bar"><text x="2" y="3229" fill="red" style="font-size: 10pt;">Albania 1981</text><rect x="20.3%" y="3220" width="3.9%" height="10"></rect><text x="25.9%" y="3229" fill="red" style="font-size: 10pt;">3.9</text><text class="hidden-text" x="20.2%" y="3243" fill="red" style="font-size: 10pt;">children Female underweight</text></g><g class="bar"><text x="2" y="3259" fill="red" style="font-size: 10pt;">Albania 1980</text><rect x="20.3%" y="3250" width="4.1%" height="10"></rect><text x="26.1%" y="3259" fill="red" style="font-size: 10pt;">4.1</text><text class="hidden-text" x="20.2%" y="3273" fill="red" style="font-size: 10pt;">children Both sexes underweight</text></g><g class="bar"><text x="2" y="3289" fill="red" style="font-size: 10pt;">Albania 1980</text><rect x="20.3%" y="3280" width="4.5%" height="10"></rect><text x="26.5%" y="3289" fill="red" style="font-size: 10pt;">4.5</text><text class="hidden-text" x="20.2%" y="3303" fill="red" style="font-size: 10pt;">children Male underweight</text></g><g class="bar"><text x="2" y="3319" fill="red" style="font-size: 10pt;">Albania 1980</text><rect x="20.3%" y="3310" width="3.8%" height="10"></rect><text x="25.8%" y="3319" fill="red" style="font-size: 10pt;">3.8</text><text class="hidden-text" x="20.2%" y="3333" fill="red" style="font-size: 10pt;">children Female underweight</text></g><g class="bar"><text x="2" y="3349" fill="red" style="font-size: 10pt;">Albania 1979</text><rect x="20.3%" y="3340" width="3.9%" height="10"></rect><text x="25.9%" y="3349" fill="red" style="font-size: 10pt;">3.9</text><text class="hidden-text" x="20.2%" y="3363" fill="red" style="font-size: 10pt;">children Both sexes underweight</text></g><g class="bar"><text x="2" y="3379" fill="red" style="font-size: 10pt;">Albania 1979</text><rect x="20.3%" y="3370" width="4.2%" height="10"></rect><text x="26.2%" y="3379" fill="red" style="font-size: 10pt;">4.2</text><text class="hidden-text" x="20.2%" y="3393" fill="red" style="font-size: 10pt;">children Male underweight</text></g><g class="bar"><text x="2" y="3409" fill="red" style="font-size: 10pt;">Albania 1979</text><rect x="20.3%" y="3400" width="3.6%" height="10"></rect><text x="25.6%" y="3409" fill="red" style="font-size: 10pt;">3.6</text><text class="hidden-text" x="20.2%" y="3423" fill="red" style="font-size: 10pt;">children Female underweight</text></g><g class="bar"><text x="2" y="3439" fill="red" style="font-size: 10pt;">Albania 1978</text><rect x="20.3%" y="3430" width="3.7%" height="10"></rect><text x="25.7%" y="3439" fill="red" style="font-size: 10pt;">3.7</text><text class="hidden-text" x="20.2%" y="3453" fill="red" style="font-size: 10pt;">children Both sexes underweight</text></g><g class="bar"><text x="2" y="3469" fill="red" style="font-size: 10pt;">Albania 1978</text><rect x="20.3%" y="3460" width="4%" height="10"></rect><text x="26%" y="3469" fill="red" style="font-size: 10pt;">4</text><text class="hidden-text" x="20.2%" y="3483" fill="red" style="font-size: 10pt;">children Male underweight</text></g><g class="bar"><text x="2" y="3499" fill="red" style="font-size: 10pt;">Albania 1978</text><rect x="20.3%" y="3490" width="3.4%" height="10"></rect><text x="25.4%" y="3499" fill="red" style="font-size: 10pt;">3.4</text><text class="hidden-text" x="20.2%" y="3513" fill="red" style="font-size: 10pt;">children Female underweight</text></g><g class="bar"><text x="2" y="3529" fill="red" style="font-size: 10pt;">Albania 1977</text><rect x="20.3%" y="3520" width="3.6%" height="10"></rect><text x="25.6%" y="3529" fill="red" style="font-size: 10pt;">3.6</text><text class="hidden-text" x="20.2%" y="3543" fill="red" style="font-size: 10pt;">children Both sexes underweight</text></g><g class="bar"><text x="2" y="3559" fill="red" style="font-size: 10pt;">Albania 1977</text><rect x="20.3%" y="3550" width="3.8%" height="10"></rect><text x="25.8%" y="3559" fill="red" style="font-size: 10pt;">3.8</text><text class="hidden-text" x="20.2%" y="3573" fill="red" style="font-size: 10pt;">children Male underweight</text></g><g class="bar"><text x="2" y="3589" fill="red" style="font-size: 10pt;">Albania 1977</text><rect x="20.3%" y="3580" width="3.3%" height="10"></rect><text x="25.3%" y="3589" fill="red" style="font-size: 10pt;">3.3</text><text class="hidden-text" x="20.2%" y="3603" fill="red" style="font-size: 10pt;">children Female underweight</text></g><g class="bar"><text x="2" y="3619" fill="red" style="font-size: 10pt;">Albania 1976</text><rect x="20.3%" y="3610" width="3.4%" height="10"></rect><text x="25.4%" y="3619" fill="red" style="font-size: 10pt;">3.4</text><text class="hidden-text" x="20.2%" y="3633" fill="red" style="font-size: 10pt;">children Both sexes underweight</text></g><g class="bar"><text x="2" y="3649" fill="red" style="font-size: 10pt;">Albania 1976</text><rect x="20.3%" y="3640" width="3.7%" height="10"></rect><text x="25.7%" y="3649" fill="red" style="font-size: 10pt;">3.7</text><text class="hidden-text" x="20.2%" y="3663" fill="red" style="font-size: 10pt;">children Male underweight</text></g><g class="bar"><text x="2" y="3679" fill="red" style="font-size: 10pt;">Albania 1976</text><rect x="20.3%" y="3670" width="3.2%" height="10"></rect><text x="25.2%" y="3679" fill="red" style="font-size: 10pt;">3.2</text><text class="hidden-text" x="20.2%" y="3693" fill="red" style="font-size: 10pt;">children Female underweight</text></g><g class="bar"><text x="2" y="3709" fill="red" style="font-size: 10pt;">Albania 1975</text><rect x="20.3%" y="3700" width="3.3%" height="10"></rect><text x="25.3%" y="3709" fill="red" style="font-size: 10pt;">3.3</text><text class="hidden-text" x="20.2%" y="3723" fill="red" style="font-size: 10pt;">children Both sexes underweight</text></g><g class="bar"><text x="2" y="3739" fill="red" style="font-size: 10pt;">Albania 1975</text><rect x="20.3%" y="3730" width="3.5%" height="10"></rect><text x="25.5%" y="3739" fill="red" style="font-size: 10pt;">3.5</text><text class="hidden-text" x="20.2%" y="3753" fill="red" style="font-size: 10pt;">children Male underweight</text></g><g class="bar"><text x="2" y="3769" fill="red" style="font-size: 10pt;">Albania 1975</text><rect x="20.3%" y="3760" width="3%" height="10"></rect><text x="25%" y="3769" fill="red" style="font-size: 10pt;">3</text><text class="hidden-text" x="20.2%" y="3783" fill="red" style="font-size: 10pt;">children Female underweight</text></g><line x1="20%" y1="0" x2="20%" y2="100%" style="stroke:rgb(255,0,0);stroke-width:2"></line></svg>